# generated by masonry_rl.robots.meshes - UNOFFICIAL approximation,
# not a Boston Dynamics asset and not derived from any third-party model
o head
v -0.09000 0.00000 0.28380
v -0.09000 0.02719 0.27949
v -0.09000 0.05173 0.26699
v -0.09000 0.07119 0.24753
v -0.09000 0.08369 0.22299
v -0.09000 0.08800 0.19580
v -0.09000 0.08369 0.16861
v -0.09000 0.07119 0.14407
v -0.09000 0.05173 0.12461
v -0.09000 0.02719 0.11211
v -0.09000 0.00000 0.10780
v -0.09000 -0.02719 0.11211
v -0.09000 -0.05173 0.12461
v -0.09000 -0.07119 0.14407
v -0.09000 -0.08369 0.16861
v -0.09000 -0.08800 0.19580
v -0.09000 -0.08369 0.22299
v -0.09000 -0.07119 0.24753
v -0.09000 -0.05173 0.26699
v -0.09000 -0.02719 0.27949
v -0.06480 0.00000 0.30580
v -0.06480 0.03399 0.30042
v -0.06480 0.06466 0.28479
v -0.06480 0.08899 0.26046
v -0.06480 0.10462 0.22979
v -0.06480 0.11000 0.19580
v -0.06480 0.10462 0.16181
v -0.06480 0.08899 0.13114
v -0.06480 0.06466 0.10681
v -0.06480 0.03399 0.09118
v -0.06480 0.00000 0.08580
v -0.06480 -0.03399 0.09118
v -0.06480 -0.06466 0.10681
v -0.06480 -0.08899 0.13114
v -0.06480 -0.10462 0.16181
v -0.06480 -0.11000 0.19580
v -0.06480 -0.10462 0.22979
v -0.06480 -0.08899 0.26046
v -0.06480 -0.06466 0.28479
v -0.06480 -0.03399 0.30042
v 0.05400 0.00000 0.30580
v 0.05400 0.03399 0.30042
v 0.05400 0.06466 0.28479
v 0.05400 0.08899 0.26046
v 0.05400 0.10462 0.22979
v 0.05400 0.11000 0.19580
v 0.05400 0.10462 0.16181
v 0.05400 0.08899 0.13114
v 0.05400 0.06466 0.10681
v 0.05400 0.03399 0.09118
v 0.05400 0.00000 0.08580
v 0.05400 -0.03399 0.09118
v 0.05400 -0.06466 0.10681
v 0.05400 -0.08899 0.13114
v 0.05400 -0.10462 0.16181
v 0.05400 -0.11000 0.19580
v 0.05400 -0.10462 0.22979
v 0.05400 -0.08899 0.26046
v 0.05400 -0.06466 0.28479
v 0.05400 -0.03399 0.30042
v 0.09000 0.00000 0.29480
v 0.09000 0.03059 0.28995
v 0.09000 0.05819 0.27589
v 0.09000 0.08009 0.25399
v 0.09000 0.09415 0.22639
v 0.09000 0.09900 0.19580
v 0.09000 0.09415 0.16521
v 0.09000 0.08009 0.13761
v 0.09000 0.05819 0.11571
v 0.09000 0.03059 0.10165
v 0.09000 0.00000 0.09680
v 0.09000 -0.03059 0.10165
v 0.09000 -0.05819 0.11571
v 0.09000 -0.08009 0.13761
v 0.09000 -0.09415 0.16521
v 0.09000 -0.09900 0.19580
v 0.09000 -0.09415 0.22639
v 0.09000 -0.08009 0.25399
v 0.09000 -0.05819 0.27589
v 0.09000 -0.03059 0.28995
v 0.05400 0.00000 0.26400
v 0.05400 0.02107 0.26066
v 0.05400 0.04009 0.25097
v 0.05400 0.05517 0.23589
v 0.05400 0.06486 0.21687
v 0.05400 0.06820 0.19580
v 0.05400 0.06486 0.17473
v 0.05400 0.05517 0.15571
v 0.05400 0.04009 0.14063
v 0.05400 0.02107 0.13094
v 0.05400 0.00000 0.12760
v 0.05400 -0.02107 0.13094
v 0.05400 -0.04009 0.14063
v 0.05400 -0.05517 0.15571
v 0.05400 -0.06486 0.17473
v 0.05400 -0.06820 0.19580
v 0.05400 -0.06486 0.21687
v 0.05400 -0.05517 0.23589
v 0.05400 -0.04009 0.25097
v 0.05400 -0.02107 0.26066
v 0.07200 0.00000 0.25960
v 0.07200 0.01972 0.25648
v 0.07200 0.03750 0.24742
v 0.07200 0.05162 0.23330
v 0.07200 0.06068 0.21552
v 0.07200 0.06380 0.19580
v 0.07200 0.06068 0.17608
v 0.07200 0.05162 0.15830
v 0.07200 0.03750 0.14418
v 0.07200 0.01972 0.13512
v 0.07200 0.00000 0.13200
v 0.07200 -0.01972 0.13512
v 0.07200 -0.03750 0.14418
v 0.07200 -0.05162 0.15830
v 0.07200 -0.06068 0.17608
v 0.07200 -0.06380 0.19580
v 0.07200 -0.06068 0.21552
v 0.07200 -0.05162 0.23330
v 0.07200 -0.03750 0.24742
v 0.07200 -0.01972 0.25648
f 21 22 2 1
f 22 23 3 2
f 23 24 4 3
f 24 25 5 4
f 25 26 6 5
f 26 27 7 6
f 27 28 8 7
f 28 29 9 8
f 29 30 10 9
f 30 31 11 10
f 31 32 12 11
f 32 33 13 12
f 33 34 14 13
f 34 35 15 14
f 35 36 16 15
f 36 37 17 16
f 37 38 18 17
f 38 39 19 18
f 39 40 20 19
f 40 21 1 20
f 41 42 22 21
f 42 43 23 22
f 43 44 24 23
f 44 45 25 24
f 45 46 26 25
f 46 47 27 26
f 47 48 28 27
f 48 49 29 28
f 49 50 30 29
f 50 51 31 30
f 51 52 32 31
f 52 53 33 32
f 53 54 34 33
f 54 55 35 34
f 55 56 36 35
f 56 57 37 36
f 57 58 38 37
f 58 59 39 38
f 59 60 40 39
f 60 41 21 40
f 61 62 42 41
f 62 63 43 42
f 63 64 44 43
f 64 65 45 44
f 65 66 46 45
f 66 67 47 46
f 67 68 48 47
f 68 69 49 48
f 69 70 50 49
f 70 71 51 50
f 71 72 52 51
f 72 73 53 52
f 73 74 54 53
f 74 75 55 54
f 75 76 56 55
f 76 77 57 56
f 77 78 58 57
f 78 79 59 58
f 79 80 60 59
f 80 61 41 60
f 1 2 3 4 5 6 7 8 9 10 11 12 13 14 15 16 17 18 19 20
f 80 79 78 77 76 75 74 73 72 71 70 69 68 67 66 65 64 63 62 61
f 101 102 82 81
f 102 103 83 82
f 103 104 84 83
f 104 105 85 84
f 105 106 86 85
f 106 107 87 86
f 107 108 88 87
f 108 109 89 88
f 109 110 90 89
f 110 111 91 90
f 111 112 92 91
f 112 113 93 92
f 113 114 94 93
f 114 115 95 94
f 115 116 96 95
f 116 117 97 96
f 117 118 98 97
f 118 119 99 98
f 119 120 100 99
f 120 101 81 100
f 81 82 83 84 85 86 87 88 89 90 91 92 93 94 95 96 97 98 99 100
f 120 119 118 117 116 115 114 113 112 111 110 109 108 107 106 105 104 103 102 101
