# generated by masonry_rl.robots.meshes - UNOFFICIAL approximation,
# not a Boston Dynamics asset and not derived from any third-party model
o l_foot
v 0.15306 0.00000 -0.07410
v 0.14949 0.03237 -0.07410
v 0.13698 0.03714 -0.07410
v 0.05199 0.03850 -0.07410
v -0.03301 0.03714 -0.07410
v -0.04553 0.03237 -0.07410
v -0.04910 0.00000 -0.07410
v -0.04553 -0.03237 -0.07410
v -0.03301 -0.03714 -0.07410
v 0.05197 -0.03850 -0.07410
v 0.13698 -0.03714 -0.07410
v 0.14949 -0.03237 -0.07410
v 0.19638 0.00000 -0.06669
v 0.19128 0.04625 -0.06669
v 0.17341 0.05306 -0.06669
v 0.05200 0.05500 -0.06669
v -0.06944 0.05306 -0.06669
v -0.08732 0.04625 -0.06669
v -0.09242 0.00001 -0.06669
v -0.08732 -0.04625 -0.06669
v -0.06944 -0.05306 -0.06669
v 0.05197 -0.05500 -0.06669
v 0.17341 -0.05306 -0.06669
v 0.19128 -0.04625 -0.06669
v 0.19638 0.00000 -0.03705
v 0.19128 0.04625 -0.03705
v 0.17341 0.05306 -0.03705
v 0.05200 0.05500 -0.03705
v -0.06944 0.05306 -0.03705
v -0.08732 0.04625 -0.03705
v -0.09242 0.00001 -0.03705
v -0.08732 -0.04625 -0.03705
v -0.06944 -0.05306 -0.03705
v 0.05197 -0.05500 -0.03705
v 0.17341 -0.05306 -0.03705
v 0.19128 -0.04625 -0.03705
v 0.19638 0.00000 -0.00741
v 0.19128 0.04625 -0.00741
v 0.17341 0.05306 -0.00741
v 0.05200 0.05500 -0.00741
v -0.06944 0.05306 -0.00741
v -0.08732 0.04625 -0.00741
v -0.09242 0.00001 -0.00741
v -0.08732 -0.04625 -0.00741
v -0.06944 -0.05306 -0.00741
v 0.05197 -0.05500 -0.00741
v 0.17341 -0.05306 -0.00741
v 0.19128 -0.04625 -0.00741
v 0.15306 0.00000 0.00000
v 0.14949 0.03237 0.00000
v 0.13698 0.03714 0.00000
v 0.05199 0.03850 0.00000
v -0.03301 0.03714 0.00000
v -0.04553 0.03237 0.00000
v -0.04910 0.00000 0.00000
v -0.04553 -0.03237 0.00000
v -0.03301 -0.03714 0.00000
v 0.05197 -0.03850 0.00000
v 0.13698 -0.03714 0.00000
v 0.14949 -0.03237 0.00000
f 1 2 14 13
f 2 3 15 14
f 3 4 16 15
f 4 5 17 16
f 5 6 18 17
f 6 7 19 18
f 7 8 20 19
f 8 9 21 20
f 9 10 22 21
f 10 11 23 22
f 11 12 24 23
f 12 1 13 24
f 13 14 26 25
f 14 15 27 26
f 15 16 28 27
f 16 17 29 28
f 17 18 30 29
f 18 19 31 30
f 19 20 32 31
f 20 21 33 32
f 21 22 34 33
f 22 23 35 34
f 23 24 36 35
f 24 13 25 36
f 25 26 38 37
f 26 27 39 38
f 27 28 40 39
f 28 29 41 40
f 29 30 42 41
f 30 31 43 42
f 31 32 44 43
f 32 33 45 44
f 33 34 46 45
f 34 35 47 46
f 35 36 48 47
f 36 25 37 48
f 37 38 50 49
f 38 39 51 50
f 39 40 52 51
f 40 41 53 52
f 41 42 54 53
f 42 43 55 54
f 43 44 56 55
f 44 45 57 56
f 45 46 58 57
f 46 47 59 58
f 47 48 60 59
f 48 37 49 60
f 12 11 10 9 8 7 6 5 4 3 2 1
f 49 50 51 52 53 54 55 56 57 58 59 60
