# generated by masonry_rl.robots.meshes - UNOFFICIAL approximation,
# not a Boston Dynamics asset and not derived from any third-party model
o l_gripper_0
v 0.00700 0.00000 -0.09000
v 0.00624 0.00624 -0.09000
v 0.00000 0.00700 -0.09000
v -0.00624 0.00624 -0.09000
v -0.00700 0.00000 -0.09000
v -0.00624 -0.00624 -0.09000
v -0.00000 -0.00700 -0.09000
v 0.00624 -0.00624 -0.09000
v 0.01000 0.00000 -0.08100
v 0.00891 0.00891 -0.08100
v 0.00000 0.01000 -0.08100
v -0.00891 0.00891 -0.08100
v -0.01000 0.00000 -0.08100
v -0.00891 -0.00891 -0.08100
v -0.00000 -0.01000 -0.08100
v 0.00891 -0.00891 -0.08100
v 0.01000 0.00000 -0.04500
v 0.00891 0.00891 -0.04500
v 0.00000 0.01000 -0.04500
v -0.00891 0.00891 -0.04500
v -0.01000 0.00000 -0.04500
v -0.00891 -0.00891 -0.04500
v -0.00000 -0.01000 -0.04500
v 0.00891 -0.00891 -0.04500
v 0.01000 0.00000 -0.00900
v 0.00891 0.00891 -0.00900
v 0.00000 0.01000 -0.00900
v -0.00891 0.00891 -0.00900
v -0.01000 0.00000 -0.00900
v -0.00891 -0.00891 -0.00900
v -0.00000 -0.01000 -0.00900
v 0.00891 -0.00891 -0.00900
v 0.00700 0.00000 0.00000
v 0.00624 0.00624 0.00000
v 0.00000 0.00700 0.00000
v -0.00624 0.00624 0.00000
v -0.00700 0.00000 0.00000
v -0.00624 -0.00624 0.00000
v -0.00000 -0.00700 0.00000
v 0.00624 -0.00624 0.00000
f 1 2 10 9
f 2 3 11 10
f 3 4 12 11
f 4 5 13 12
f 5 6 14 13
f 6 7 15 14
f 7 8 16 15
f 8 1 9 16
f 9 10 18 17
f 10 11 19 18
f 11 12 20 19
f 12 13 21 20
f 13 14 22 21
f 14 15 23 22
f 15 16 24 23
f 16 9 17 24
f 17 18 26 25
f 18 19 27 26
f 19 20 28 27
f 20 21 29 28
f 21 22 30 29
f 22 23 31 30
f 23 24 32 31
f 24 17 25 32
f 25 26 34 33
f 26 27 35 34
f 27 28 36 35
f 28 29 37 36
f 29 30 38 37
f 30 31 39 38
f 31 32 40 39
f 32 25 33 40
f 8 7 6 5 4 3 2 1
f 33 34 35 36 37 38 39 40
