# generated by masonry_rl.robots.meshes - UNOFFICIAL approximation,
# not a Boston Dynamics asset and not derived from any third-party model
o r_forearm
v 0.02381 0.00000 -0.29995
v 0.02216 0.01810 -0.29995
v 0.01683 0.02382 -0.29995
v 0.00000 0.02559 -0.29995
v -0.01683 0.02382 -0.29995
v -0.02216 0.01810 -0.29995
v -0.02381 0.00000 -0.29995
v -0.02216 -0.01810 -0.29995
v -0.01683 -0.02382 -0.29995
v -0.00000 -0.02559 -0.29995
v 0.01683 -0.02382 -0.29995
v 0.02216 -0.01810 -0.29995
v 0.03840 0.00000 -0.26395
v 0.03574 0.02919 -0.26395
v 0.02715 0.03842 -0.26395
v 0.00000 0.04128 -0.26395
v -0.02715 0.03842 -0.26395
v -0.03574 0.02919 -0.26395
v -0.03840 0.00000 -0.26395
v -0.03574 -0.02919 -0.26395
v -0.02715 -0.03842 -0.26395
v -0.00000 -0.04128 -0.26395
v 0.02715 -0.03842 -0.26395
v 0.03574 -0.02919 -0.26395
v 0.03911 0.00000 -0.16497
v 0.03640 0.02999 -0.16497
v 0.02766 0.03947 -0.16497
v 0.00000 0.04241 -0.16497
v -0.02766 0.03947 -0.16497
v -0.03640 0.02999 -0.16497
v -0.03911 0.00000 -0.16497
v -0.03640 -0.02999 -0.16497
v -0.02766 -0.03947 -0.16497
v -0.00000 -0.04241 -0.16497
v 0.02766 -0.03947 -0.16497
v 0.03640 -0.02999 -0.16497
v 0.05184 0.00000 -0.03599
v 0.04824 0.04005 -0.03599
v 0.03666 0.05271 -0.03599
v 0.00000 0.05664 -0.03599
v -0.03666 0.05271 -0.03599
v -0.04824 0.04005 -0.03599
v -0.05184 0.00000 -0.03599
v -0.04824 -0.04005 -0.03599
v -0.03666 -0.05271 -0.03599
v -0.00000 -0.05664 -0.03599
v 0.03666 -0.05271 -0.03599
v 0.04824 -0.04005 -0.03599
v 0.03214 0.00000 0.00000
v 0.02991 0.02483 0.00000
v 0.02273 0.03268 0.00000
v 0.00000 0.03512 0.00000
v -0.02273 0.03268 0.00000
v -0.02991 0.02483 0.00000
v -0.03214 0.00000 0.00000
v -0.02991 -0.02483 0.00000
v -0.02273 -0.03268 0.00000
v -0.00000 -0.03512 0.00000
v 0.02273 -0.03268 0.00000
v 0.02991 -0.02483 0.00000
v 0.05160 -0.06000 0.00000
v 0.04649 -0.06000 0.02239
v 0.03217 -0.06000 0.04034
v 0.01148 -0.06000 0.05031
v -0.01148 -0.06000 0.05031
v -0.03217 -0.06000 0.04034
v -0.04649 -0.06000 0.02239
v -0.05160 -0.06000 0.00000
v -0.04649 -0.06000 -0.02239
v -0.03217 -0.06000 -0.04034
v -0.01148 -0.06000 -0.05031
v 0.01148 -0.06000 -0.05031
v 0.03217 -0.06000 -0.04034
v 0.04649 -0.06000 -0.02239
v 0.06000 -0.05040 0.00000
v 0.05406 -0.05040 0.02603
v 0.03741 -0.05040 0.04691
v 0.01335 -0.05040 0.05850
v -0.01335 -0.05040 0.05850
v -0.03741 -0.05040 0.04691
v -0.05406 -0.05040 0.02603
v -0.06000 -0.05040 0.00000
v -0.05406 -0.05040 -0.02603
v -0.03741 -0.05040 -0.04691
v -0.01335 -0.05040 -0.05850
v 0.01335 -0.05040 -0.05850
v 0.03741 -0.05040 -0.04691
v 0.05406 -0.05040 -0.02603
v 0.06000 0.05040 0.00000
v 0.05406 0.05040 0.02603
v 0.03741 0.05040 0.04691
v 0.01335 0.05040 0.05850
v -0.01335 0.05040 0.05850
v -0.03741 0.05040 0.04691
v -0.05406 0.05040 0.02603
v -0.06000 0.05040 0.00000
v -0.05406 0.05040 -0.02603
v -0.03741 0.05040 -0.04691
v -0.01335 0.05040 -0.05850
v 0.01335 0.05040 -0.05850
v 0.03741 0.05040 -0.04691
v 0.05406 0.05040 -0.02603
v 0.05160 0.06000 0.00000
v 0.04649 0.06000 0.02239
v 0.03217 0.06000 0.04034
v 0.01148 0.06000 0.05031
v -0.01148 0.06000 0.05031
v -0.03217 0.06000 0.04034
v -0.04649 0.06000 0.02239
v -0.05160 0.06000 0.00000
v -0.04649 0.06000 -0.02239
v -0.03217 0.06000 -0.04034
v -0.01148 0.06000 -0.05031
v 0.01148 0.06000 -0.05031
v 0.03217 0.06000 -0.04034
v 0.04649 0.06000 -0.02239
f 1 2 14 13
f 2 3 15 14
f 3 4 16 15
f 4 5 17 16
f 5 6 18 17
f 6 7 19 18
f 7 8 20 19
f 8 9 21 20
f 9 10 22 21
f 10 11 23 22
f 11 12 24 23
f 12 1 13 24
f 13 14 26 25
f 14 15 27 26
f 15 16 28 27
f 16 17 29 28
f 17 18 30 29
f 18 19 31 30
f 19 20 32 31
f 20 21 33 32
f 21 22 34 33
f 22 23 35 34
f 23 24 36 35
f 24 13 25 36
f 25 26 38 37
f 26 27 39 38
f 27 28 40 39
f 28 29 41 40
f 29 30 42 41
f 30 31 43 42
f 31 32 44 43
f 32 33 45 44
f 33 34 46 45
f 34 35 47 46
f 35 36 48 47
f 36 25 37 48
f 37 38 50 49
f 38 39 51 50
f 39 40 52 51
f 40 41 53 52
f 41 42 54 53
f 42 43 55 54
f 43 44 56 55
f 44 45 57 56
f 45 46 58 57
f 46 47 59 58
f 47 48 60 59
f 48 37 49 60
f 12 11 10 9 8 7 6 5 4 3 2 1
f 49 50 51 52 53 54 55 56 57 58 59 60
f 75 76 62 61
f 76 77 63 62
f 77 78 64 63
f 78 79 65 64
f 79 80 66 65
f 80 81 67 66
f 81 82 68 67
f 82 83 69 68
f 83 84 70 69
f 84 85 71 70
f 85 86 72 71
f 86 87 73 72
f 87 88 74 73
f 88 75 61 74
f 89 90 76 75
f 90 91 77 76
f 91 92 78 77
f 92 93 79 78
f 93 94 80 79
f 94 95 81 80
f 95 96 82 81
f 96 97 83 82
f 97 98 84 83
f 98 99 85 84
f 99 100 86 85
f 100 101 87 86
f 101 102 88 87
f 102 89 75 88
f 103 104 90 89
f 104 105 91 90
f 105 106 92 91
f 106 107 93 92
f 107 108 94 93
f 108 109 95 94
f 109 110 96 95
f 110 111 97 96
f 111 112 98 97
f 112 113 99 98
f 113 114 100 99
f 114 115 101 100
f 115 116 102 101
f 116 103 89 102
f 61 62 63 64 65 66 67 68 69 70 71 72 73 74
f 116 115 114 113 112 111 110 109 108 107 106 105 104 103
