# generated by masonry_rl.robots.meshes - UNOFFICIAL approximation,
# not a Boston Dynamics asset and not derived from any third-party model
o torso
v 0.08400 0.00000 0.02069
v 0.08138 0.07627 0.02069
v 0.07313 0.09750 0.02069
v 0.05720 0.10851 0.02069
v 0.00000 0.11200 0.02069
v -0.05720 0.10851 0.02069
v -0.07313 0.09750 0.02069
v -0.08138 0.07627 0.02069
v -0.08400 0.00000 0.02069
v -0.08138 -0.07627 0.02069
v -0.07313 -0.09750 0.02069
v -0.05720 -0.10851 0.02069
v -0.00000 -0.11200 0.02069
v 0.05720 -0.10851 0.02069
v 0.07313 -0.09750 0.02069
v 0.08138 -0.07627 0.02069
v 0.12000 0.00000 0.06827
v 0.11626 0.10896 0.06827
v 0.10447 0.13929 0.06827
v 0.08172 0.15501 0.06827
v 0.00000 0.16000 0.06827
v -0.08172 0.15501 0.06827
v -0.10447 0.13929 0.06827
v -0.11626 0.10896 0.06827
v -0.12000 0.00000 0.06827
v -0.11626 -0.10896 0.06827
v -0.10447 -0.13929 0.06827
v -0.08172 -0.15501 0.06827
v -0.00000 -0.16000 0.06827
v 0.08172 -0.15501 0.06827
v 0.10447 -0.13929 0.06827
v 0.11626 -0.10896 0.06827
v 0.10560 0.00000 0.25860
v 0.10231 0.09588 0.25860
v 0.09193 0.12257 0.25860
v 0.07191 0.13641 0.25860
v 0.00000 0.14080 0.25860
v -0.07191 0.13641 0.25860
v -0.09193 0.12257 0.25860
v -0.10231 0.09588 0.25860
v -0.10560 0.00000 0.25860
v -0.10231 -0.09588 0.25860
v -0.09193 -0.12257 0.25860
v -0.07191 -0.13641 0.25860
v -0.00000 -0.14080 0.25860
v 0.07191 -0.13641 0.25860
v 0.09193 -0.12257 0.25860
v 0.10231 -0.09588 0.25860
v 0.12000 0.00000 0.44893
v 0.11626 0.10896 0.44893
v 0.10447 0.13929 0.44893
v 0.08172 0.15501 0.44893
v 0.00000 0.16000 0.44893
v -0.08172 0.15501 0.44893
v -0.10447 0.13929 0.44893
v -0.11626 0.10896 0.44893
v -0.12000 0.00000 0.44893
v -0.11626 -0.10896 0.44893
v -0.10447 -0.13929 0.44893
v -0.08172 -0.15501 0.44893
v -0.00000 -0.16000 0.44893
v 0.08172 -0.15501 0.44893
v 0.10447 -0.13929 0.44893
v 0.11626 -0.10896 0.44893
v 0.08400 0.00000 0.49651
v 0.08138 0.07627 0.49651
v 0.07313 0.09750 0.49651
v 0.05720 0.10851 0.49651
v 0.00000 0.11200 0.49651
v -0.05720 0.10851 0.49651
v -0.07313 0.09750 0.49651
v -0.08138 0.07627 0.49651
v -0.08400 0.00000 0.49651
v -0.08138 -0.07627 0.49651
v -0.07313 -0.09750 0.49651
v -0.05720 -0.10851 0.49651
v -0.00000 -0.11200 0.49651
v 0.05720 -0.10851 0.49651
v 0.07313 -0.09750 0.49651
v 0.08138 -0.07627 0.49651
v 0.08256 -0.16320 0.49651
v 0.07438 -0.16320 0.53233
v 0.05148 -0.16320 0.56106
v 0.01837 -0.16320 0.57700
v -0.01837 -0.16320 0.57700
v -0.05148 -0.16320 0.56106
v -0.07438 -0.16320 0.53233
v -0.08256 -0.16320 0.49651
v -0.07438 -0.16320 0.46069
v -0.05148 -0.16320 0.43196
v -0.01837 -0.16320 0.41602
v 0.01837 -0.16320 0.41602
v 0.05148 -0.16320 0.43196
v 0.07438 -0.16320 0.46069
v 0.09600 -0.13709 0.49651
v 0.08649 -0.13709 0.53816
v 0.05986 -0.13709 0.57157
v 0.02136 -0.13709 0.59011
v -0.02136 -0.13709 0.59011
v -0.05986 -0.13709 0.57157
v -0.08649 -0.13709 0.53816
v -0.09600 -0.13709 0.49651
v -0.08649 -0.13709 0.45486
v -0.05986 -0.13709 0.42146
v -0.02136 -0.13709 0.40292
v 0.02136 -0.13709 0.40292
v 0.05986 -0.13709 0.42146
v 0.08649 -0.13709 0.45486
v 0.09600 0.13709 0.49651
v 0.08649 0.13709 0.53816
v 0.05986 0.13709 0.57157
v 0.02136 0.13709 0.59011
v -0.02136 0.13709 0.59011
v -0.05986 0.13709 0.57157
v -0.08649 0.13709 0.53816
v -0.09600 0.13709 0.49651
v -0.08649 0.13709 0.45486
v -0.05986 0.13709 0.42146
v -0.02136 0.13709 0.40292
v 0.02136 0.13709 0.40292
v 0.05986 0.13709 0.42146
v 0.08649 0.13709 0.45486
v 0.08256 0.16320 0.49651
v 0.07438 0.16320 0.53233
v 0.05148 0.16320 0.56106
v 0.01837 0.16320 0.57700
v -0.01837 0.16320 0.57700
v -0.05148 0.16320 0.56106
v -0.07438 0.16320 0.53233
v -0.08256 0.16320 0.49651
v -0.07438 0.16320 0.46069
v -0.05148 0.16320 0.43196
v -0.01837 0.16320 0.41602
v 0.01837 0.16320 0.41602
v 0.05148 0.16320 0.43196
v 0.07438 0.16320 0.46069
f 1 2 18 17
f 2 3 19 18
f 3 4 20 19
f 4 5 21 20
f 5 6 22 21
f 6 7 23 22
f 7 8 24 23
f 8 9 25 24
f 9 10 26 25
f 10 11 27 26
f 11 12 28 27
f 12 13 29 28
f 13 14 30 29
f 14 15 31 30
f 15 16 32 31
f 16 1 17 32
f 17 18 34 33
f 18 19 35 34
f 19 20 36 35
f 20 21 37 36
f 21 22 38 37
f 22 23 39 38
f 23 24 40 39
f 24 25 41 40
f 25 26 42 41
f 26 27 43 42
f 27 28 44 43
f 28 29 45 44
f 29 30 46 45
f 30 31 47 46
f 31 32 48 47
f 32 17 33 48
f 33 34 50 49
f 34 35 51 50
f 35 36 52 51
f 36 37 53 52
f 37 38 54 53
f 38 39 55 54
f 39 40 56 55
f 40 41 57 56
f 41 42 58 57
f 42 43 59 58
f 43 44 60 59
f 44 45 61 60
f 45 46 62 61
f 46 47 63 62
f 47 48 64 63
f 48 33 49 64
f 49 50 66 65
f 50 51 67 66
f 51 52 68 67
f 52 53 69 68
f 53 54 70 69
f 54 55 71 70
f 55 56 72 71
f 56 57 73 72
f 57 58 74 73
f 58 59 75 74
f 59 60 76 75
f 60 61 77 76
f 61 62 78 77
f 62 63 79 78
f 63 64 80 79
f 64 49 65 80
f 16 15 14 13 12 11 10 9 8 7 6 5 4 3 2 1
f 65 66 67 68 69 70 71 72 73 74 75 76 77 78 79 80
f 95 96 82 81
f 96 97 83 82
f 97 98 84 83
f 98 99 85 84
f 99 100 86 85
f 100 101 87 86
f 101 102 88 87
f 102 103 89 88
f 103 104 90 89
f 104 105 91 90
f 105 106 92 91
f 106 107 93 92
f 107 108 94 93
f 108 95 81 94
f 109 110 96 95
f 110 111 97 96
f 111 112 98 97
f 112 113 99 98
f 113 114 100 99
f 114 115 101 100
f 115 116 102 101
f 116 117 103 102
f 117 118 104 103
f 118 119 105 104
f 119 120 106 105
f 120 121 107 106
f 121 122 108 107
f 122 109 95 108
f 123 124 110 109
f 124 125 111 110
f 125 126 112 111
f 126 127 113 112
f 127 128 114 113
f 128 129 115 114
f 129 130 116 115
f 130 131 117 116
f 131 132 118 117
f 132 133 119 118
f 133 134 120 119
f 134 135 121 120
f 135 136 122 121
f 136 123 109 122
f 81 82 83 84 85 86 87 88 89 90 91 92 93 94
f 136 135 134 133 132 131 130 129 128 127 126 125 124 123
